<!DOCTYPE svg PUBLIC "-//W3C//DTD SVG 1.1//EN" "http://www.w3.org/Graphics/SVG/1.1/DTD/svg11.dtd">
<!-- Uploaded to: SVG Repo, www.svgrepo.com, Transformed by: SVG Repo Mixer Tools -->
<svg width="100px" height="100px" viewBox="-4.8 -4.8 57.60 57.60" xmlns="http://www.w3.org/2000/svg" fill="#ffffff" stroke="#ffffff">
<g id="SVGRepo_bgCarrier" stroke-width="0">
<path transform="translate(-4.8, -4.8), scale(1.7999999999999998)" d="M16,24.77673750370741C17.350548925178405,24.790989940550567,18.689681590175343,25.308031573051206,20.001995306085085,24.98862862645916C21.383660933493136,24.652346175663357,22.631275279767213,23.87667029792702,23.673360351406146,22.909124693760788C24.75380737929148,21.9059611317679,25.186280164383543,20.421099183729815,26.135998468861526,19.29338554351969C27.596944945507115,17.55862981483473,31.71239339320166,16.521547045032335,30.802179998076618,14.444228191037267C29.688073910620595,11.901578749468522,24.368734314169643,14.37326779730401,22.937837475928927,11.994437665678563C21.544467960845623,9.67799576827121,25.83408944157331,6.559687793525474,24.60982477903675,4.149592835709104C23.695063828359075,2.348788792024856,20.635766244138676,3.899590194543847,18.64690642127837,3.5472843534819454C16.727197532232548,3.2072278814392705,14.766852195471133,1.1853950360302796,13.045703773908258,2.1011290224102073C11.089451701631669,3.1419494920842657,12.148529787565597,6.956087207388697,10.212817433594875,8.034626545134014C7.882727278335903,9.332905128615074,4.4263496357474565,6.481108802610569,2.2983377257762463,8.089341597631567C0.5680989174157076,9.396959652673896,1.2014106204683277,12.375155717326145,1.666463386622393,14.493484595598362C2.1024060580437083,16.47921614554678,3.5317935762773454,18.06564838077825,4.831683645505903,19.62880595733522C5.870758652899075,20.87832544276491,7.208873819037884,21.77484252789357,8.519976320634967,22.735043572343876C9.643185721223402,23.557638936373515,10.692354127870107,24.537958970263258,12.035435807270566,24.90455696937417C13.3250720424423,25.256566881091477,14.663260085968322,24.762630794320376,16,24.77673750370741" fill="#c87fd2" strokewidth="0"/>
</g>
<g id="SVGRepo_tracerCarrier" stroke-linecap="round" stroke-linejoin="round"/>
<g id="SVGRepo_iconCarrier">
<defs>
<style>.a{fill:none;stroke:#ffffff;stroke-linecap:round;stroke-linejoin:round;}</style>
</defs>
<path class="a" d="M44.6006,17.8524A21.4985,21.4985,0,1,1,26.7659,2.68"/>
<path class="a" d="M44.5931,17.8213C41.42,5.6242,24.9473,17.5706,37.62,23.55"/>
<path class="a" d="M37.6223,23.556A13.4053,13.4053,0,0,1,25.2765,37.012c-7.1682.733-13.7246-3.9041-15.0627-10.6532A13.1623,13.1623,0,0,1,20.1606,11.206"/>
<path class="a" d="M19.71,11.31s.8129.0167.952-1.6306c.3531-4.485,2-3.447,6.3464-3.5128,2.6554-.3732,2.3338-3.2366-.2168-3.4787"/>
<ellipse class="a" cx="33.205" cy="6.4457" rx="2.2657" ry="2.2427"/>
</g>
</svg>