<!DOCTYPE svg PUBLIC "-//W3C//DTD SVG 1.1//EN" "http://www.w3.org/Graphics/SVG/1.1/DTD/svg11.dtd">
<!-- Uploaded to: SVG Repo, www.svgrepo.com, Transformed by: SVG Repo Mixer Tools -->
<svg width="102px" height="102px" viewBox="-4.8 -4.8 57.60 57.60" id="Layer_2" data-name="Layer 2" xmlns="http://www.w3.org/2000/svg" fill="#fcf7f7">
<g id="SVGRepo_bgCarrier" stroke-width="0">
<path transform="translate(-4.8, -4.8), scale(1.7999999999999998)" d="M16,27.159770214309294C17.85303055176851,26.68986256666777,19.76793417345752,27.144523033344054,21.6360052294795,26.738510776444816C23.959698441633922,26.233472211467898,26.70245025924083,26.25231172080918,28.296004524586124,24.487319114669905C29.877595521867157,22.735576813297694,29.58515859252758,20.0263583219621,29.81675400970515,17.67765767355252C30.044253524463564,15.370495190210834,30.43054891930384,13.006377225112232,29.643103778609,10.825853227502762C28.851278786728212,8.633200930252642,27.445055452053584,6.497974003237753,25.385228741854803,5.406266698895189C23.385324716133493,4.346318392538215,20.961712746928672,5.192987069278175,18.704285144014325,5.028283876092065C16.829004935939857,4.891462372718122,15.023789315097966,4.205331703521719,13.169196338710115,4.514978073618616C11.242480616173331,4.836666194563688,9.621542820401626,5.9489669204731435,7.8808585034896215,6.835383770202549C5.652760314608724,7.970008675067158,2.6130942327310827,8.268397158983657,1.4509978854172356,10.482291305864482C0.3140066817434566,12.648357980703233,1.7062248432715204,15.27881161147811,2.1900696886868865,17.676829126560836C2.643031763555604,19.92178636749397,3.1480066170951173,22.109511332758686,4.20675429949676,24.14028975491523C5.359583704830712,26.351525840428213,6.2176524523611985,29.41729139325282,8.633435607023575,30.03581577702998C11.224742961871186,30.69928045172192,13.40717558791907,27.81728124080891,16,27.159770214309294" fill="#ad65c8" strokewidth="0"/>
</g>
<g id="SVGRepo_tracerCarrier" stroke-linecap="round" stroke-linejoin="round"/>
<g id="SVGRepo_iconCarrier">
<defs>
<style>.cls-1{fill:none;stroke:#ffffff;stroke-linecap:round;stroke-linejoin:round;}</style>
</defs>
<polygon class="cls-1" points="23.57 14.64 17.25 21.06 10.92 14.64 17.25 8.27 23.57 14.64"/>
<polygon class="cls-1" points="4.5 8.27 17.26 8.27 10.93 14.64 4.5 8.27"/>
<polygon class="cls-1" points="10.92 14.64 17.25 21.06 10.9 27.4 10.92 14.64"/>
<polygon class="cls-1" points="17.2 39.72 7.96 30.36 17.25 21.06 17.2 39.72"/>
<polygon class="cls-1" points="17.25 39.73 17.25 21.06 35.84 39.66 17.25 39.73"/>
<polygon class="cls-1" points="30.4 34.22 17.25 21.06 43.5 21.06 30.4 34.22"/>
</g>
</svg>