<!DOCTYPE svg PUBLIC "-//W3C//DTD SVG 1.1//EN" "http://www.w3.org/Graphics/SVG/1.1/DTD/svg11.dtd">
<!-- Uploaded to: SVG Repo, www.svgrepo.com, Transformed by: SVG Repo Mixer Tools -->
<svg width="114px" height="114px" viewBox="-9.36 -9.36 42.72 42.72" xmlns="http://www.w3.org/2000/svg" fill="#ffffff" stroke="#ffffff" stroke-width="0.00024000000000000003">
<g id="SVGRepo_bgCarrier" stroke-width="0">
<path transform="translate(-9.36, -9.36), scale(1.335)" d="M16,25.716265872120857C18.055589989789134,25.72563774146224,19.936489019205656,27.86405865419443,21.888405644677718,27.219419588311823C23.783000427341,26.593711607251542,24.252487000896185,24.11196185985097,25.520993240564106,22.571867126407277C26.913737148658747,20.88093531163444,29.529553918183854,19.84916512490281,29.7538168617438,17.6700157202287C29.979028777161993,15.481645213632328,28.100041438598865,13.595437558403209,26.611488249526438,11.975593342347386C25.38270293696464,10.638428640447888,23.423500549527528,10.354737222948792,21.997785776586152,9.229899381039884C20.673992582246964,8.185474010611726,20.12825544093837,6.236204611659371,18.558021912985254,5.62169713126174C16.96629058162202,4.998776532195794,15.171416153183626,5.495961068575741,13.512877936526596,5.909349128239022C11.857138258476613,6.322039656526154,10.302587499219904,7.005520254252593,8.931340217357675,8.021132505848852C7.483562757213024,9.093426719705716,6.237376953189596,10.394028373590453,5.344807315211341,11.959018436349055C4.364499528203043,13.677844486255804,3.531684204288084,15.537141489107999,3.5161874911905286,17.5158092729945C3.4998912526353125,19.596562915702258,4.077543578911044,21.701104395358982,5.255072078639701,23.416688238066598C6.433717385095055,25.1338991968705,8.103036470373034,26.729976317397632,10.139707330764775,27.165854788874057C12.136463956215199,27.59319100835743,13.958048336652622,25.706956182793036,16,25.716265872120857" fill="#8c56b8" strokewidth="0"/>
</g>
<g id="SVGRepo_tracerCarrier" stroke-linecap="round" stroke-linejoin="round"/>
<g id="SVGRepo_iconCarrier">
<path d="M21.73 10.456l.685-.742A2.454 2.454 0 0 1 23 11.433c0 2.744-3.938 5.032-7.947 5.941l1.396-1.434c3.007-1.002 5.55-2.746 5.55-4.507a1.595 1.595 0 0 0-.268-.977zm-19.53.25c0-3.745 5.101-6.434 9.664-6.505h.16c2.01 0 2.323.337 2.539.57a1.266 1.266 0 0 1 .331.918 2.856 2.856 0 0 1-.142.824 3.555 3.555 0 0 0-.17.991 1.863 1.863 0 0 0 1.632 1.882l.862-.84c-.873-.102-1.494-.342-1.494-1.042 0-.548.312-.997.312-1.815a2.27 2.27 0 0 0-.606-1.607c-.345-.372-.817-.88-3.264-.88h-.16C6.828 3.28 1.2 6.237 1.2 10.704c0 3.164 2.758 5.244 5.785 6.292a3.098 3.098 0 0 1 1.147-.683c-3.038-.84-5.932-2.76-5.932-5.609zM12 7.5A1.5 1.5 0 1 1 10.5 6 1.5 1.5 0 0 1 12 7.5zm-1 0a.5.5 0 1 0-.5.5.5.5 0 0 0 .5-.5zM6.5 11A1.5 1.5 0 1 1 8 9.5 1.5 1.5 0 0 1 6.5 11zM7 9.5a.5.5 0 1 0-.5.5.5.5 0 0 0 .5-.5zm3 4A1.5 1.5 0 1 1 8.5 12a1.5 1.5 0 0 1 1.5 1.5zm-1 0a.5.5 0 1 0-.5.5.5.5 0 0 0 .5-.5zm13.11-7.483L18.4 9.35l-7.45 7.25 1.4 1.4 7.25-7.449 3.383-3.661a.626.626 0 0 0-.873-.873zM9.368 17.619l1.439 1.738a2.94 2.94 0 0 1-1.63 2.234 3.92 3.92 0 0 1-1.626.359 3.598 3.598 0 0 1-1.733-.427s1.8-.968 1.809-2.464c.006-1.38 1.451-1.44 1.703-1.44zm.35 1.99l-.78-.94a.379.379 0 0 0-.311.395 3.191 3.191 0 0 1-.633 1.85 3.042 3.042 0 0 0 .772-.234 1.823 1.823 0 0 0 .952-1.07z"/>
<path fill="none" d="M0 0h24v24H0z"/>
</g>
</svg>