<!DOCTYPE svg PUBLIC "-//W3C//DTD SVG 1.1//EN" "http://www.w3.org/Graphics/SVG/1.1/DTD/svg11.dtd">
<!-- Uploaded to: SVG Repo, www.svgrepo.com, Transformed by: SVG Repo Mixer Tools -->
<svg width="110px" height="110px" viewBox="-4.8 -4.8 57.60 57.60" id="b" xmlns="http://www.w3.org/2000/svg" fill="#ffffff" stroke="#ffffff">
<g id="SVGRepo_bgCarrier" stroke-width="0">
<path transform="translate(-4.8, -4.8), scale(1.7999999999999998)" d="M16,28.62199567532853C18.35348312069107,29.227763089848573,21.33353223354671,30.00641375413869,23.163140075281262,28.4069225521199C25.089131434872034,26.723170348746592,23.589760310087676,23.32724010723148,24.69537052337091,21.020274512371735C25.67505267961012,18.97607032432407,28.70464812502118,18.23045581624919,29.109141315872733,16C29.51068826586963,13.785790341162048,27.591952839641554,11.88386872087668,26.729167837646024,9.805512060754396C25.731962410029002,7.403350992580575,25.71846487129249,4.336203233249167,23.62592289018396,2.791514099598894C21.53072362770867,1.2448633930438289,18.601342072479664,1.7628641331376695,16,1.885370375882637C13.493870578892949,2.0033927238315887,10.646016642356933,1.8161476603354132,8.777789418536585,3.4907643299437936C6.917681835947674,5.158102823544439,6.974849089407573,8.034231892219111,6.422428506470949,10.470386520028109C6.006180925657119,12.306023173759112,5.609177274257054,14.147277183259217,5.941204588468137,15.999999999999998C6.242505648113412,17.681269353514956,7.4347985831519035,18.974999992327916,8.218521013689074,20.49263898744002C9.045337907546674,22.09372823925039,9.444346367484941,23.8947984720112,10.690378019488168,25.196535039230973C12.172040083803282,26.744436078727464,13.924899441396757,28.087881668220177,16,28.62199567532853" fill="#7456c8" strokewidth="0"/>
</g>
<g id="SVGRepo_tracerCarrier" stroke-linecap="round" stroke-linejoin="round"/>
<g id="SVGRepo_iconCarrier">
<defs>
<style>.c{fill:none;stroke:#ffffff;stroke-linecap:round;stroke-linejoin:round;}</style>
</defs>
<path class="c" d="m8.1308,36.4112c8.1869-1.9065,15.3364-2.3271,26.0467-2.8037-.9533-9.8692,1.0935-20.6916,2.6636-24.6168-14.5234,7.0093-25.2897,18.8411-28.7103,27.4206Z"/>
<path class="c" d="m26.0257,25.1612c-1.5561-1.4089-5.0888-1.4299-6.8972,1.5981"/>
<path class="c" d="m26.0257,25.1612c-.5062,2.0372,1.1449,5.1604,4.6681,5.323"/>
<path class="c" d="m26.0257,25.1612c2.0345-.5167,4.0066-3.4478,2.4849-6.6295"/>
</g>
</svg>