<!DOCTYPE svg PUBLIC "-//W3C//DTD SVG 1.1//EN" "http://www.w3.org/Graphics/SVG/1.1/DTD/svg11.dtd">
<!-- Uploaded to: SVG Repo, www.svgrepo.com, Transformed by: SVG Repo Mixer Tools -->
<svg fill="#ffffff" width="100px" height="100px" viewBox="-3.2 -3.2 38.40 38.40" version="1.1" xmlns="http://www.w3.org/2000/svg" stroke="#ffffff">
<g id="SVGRepo_bgCarrier" stroke-width="0">
<path transform="translate(-3.2, -3.2), scale(1.2)" d="M16,30.73255243897438C19.026675860176976,31.672946924746753,22.85914061957211,30.705152151016105,24.959373754288706,28.331520054146917C27.02361572556014,25.99856428951198,26.369800281262865,22.395187290903802,26.124802947541472,19.28974789813321C25.956253095198644,17.153310969777426,24.061577635974825,15.595283484884122,23.786895191846803,13.46988437966766C23.40081188298182,10.482503362997388,26.488835298787,6.663970975787273,24.234824216789665,4.665736829752516C22.07392473586579,2.750048320756989,18.819662071890598,5.943035325593913,16,6.5666175819933414C13.970832985301236,7.015377934608477,11.702591040514728,6.550140155698653,10.04515097725525,7.803853465958689C8.40068724074515,9.047751281876211,8.299849892610608,11.375588859754542,7.276171642253255,13.165456340012913C5.866480355737398,15.630254815566648,2.1414778434273023,17.51899383674781,2.928425492292515,20.247212018330117C3.706399541046096,22.944320202933458,8.150978949604182,22.033018732699155,10.340635091099482,23.78944754195966C12.72813834676305,25.704579064659402,13.07712844009891,29.82441016522883,16,30.73255243897438" fill="#4d378b" strokewidth="0"/>
</g>
<g id="SVGRepo_tracerCarrier" stroke-linecap="round" stroke-linejoin="round"/>
<g id="SVGRepo_iconCarrier"> <title>paint</title> <path d="M26 13h-10v2h-2v-3h12v-6h-1v3c0 0.552-0.448 1-1 1h-18c-0.553 0-1-0.448-1-1v-4c0-0.553 0.447-1 1-1h18c0.552 0 1 0.447 1 1h2v8h-1zM23 5h-16v1h16v-1zM17 26c0 1.104-0.896 2-2 2s-2-0.896-2-2v-10h4v10zM15 24.583c-0.553 0-1 0.448-1 1 0 0.553 0.447 1 1 1 0.552 0 1-0.447 1-1 0-0.552-0.448-1-1-1z"/> </g>
</svg>